<?xml version="1.0" encoding="UTF-8"?>
<svg width="24px" height="24px" viewBox="0 0 24 24" version="1.1" xmlns="http://www.w3.org/2000/svg">
    <g stroke="none" stroke-width="1" fill="none" fill-rule="evenodd">
        <rect fill="#0A66C2" x="0" y="0" width="24" height="24" rx="2"/>
        <path d="M5,9.5 L8.5,9.5 L8.5,19 L5,19 L5,9.5 Z M6.75,8 C5.75,8 5,7.25 5,6.25 C5,5.25 5.75,4.5 6.75,4.5 C7.75,4.5 8.5,5.25 8.5,6.25 C8.5,7.25 7.75,8 6.75,8 Z M20,19 L16.5,19 L16.5,14.25 C16.5,13.25 16.5,11.75 14.75,11.75 C13,11.75 12.75,13 12.75,14.25 L12.75,19 L9.25,19 L9.25,9.5 L12.75,9.5 L12.75,11 C13.25,10 14.25,9 16,9 C19.5,9 20,11 20,13.75 L20,19 Z" fill="#FFFFFF" fill-rule="nonzero"/>
    </g>
</svg>