<?xml version="1.0" encoding="UTF-8"?>
<svg xmlns="http://www.w3.org/2000/svg" viewBox="0 0 500 500">
  <path fill="#0A1A3B" d="M250 40L40 150v200l210 110 210-110V150L250 40z"/>
  <path fill="#C4A484" d="M250 80l170 90v160l-170 90-170-90V170l170-90z"/>
  <path fill="#0A1A3B" d="M250 120l130 70v120l-130 70-130-70V190l130-70z"/>
  <path fill="#C4A484" d="M250 200c-20 0-40 10-50 30-10-5-20-5-30 0-10-20-30-30-50-30-30 0-50 20-50 50s20 50 50 50c20 0 40-10 50-30 10 5 20 5 30 0 10 20 30 30 50 30 30 0 50-20 50-50s-20-50-50-50z"/>
  <path fill="#0A1A3B" d="M170 280v-60l80-40 80 40v60l-80 40-80-40z"/>
  <path fill="#C4A484" d="M250 300l-40-20v-40l40-20 40 20v40l-40 20z"/>
</svg>